<svg xmlns="http://www.w3.org/2000/svg" width="1600" height="1100" viewBox="0 0 1600 1100">
<style>
  .title { font: bold 54px Arial, sans-serif; fill: #111; }
  .subtitle { font: 28px Arial, sans-serif; fill: #444; }
  .label { font: bold 30px Arial, sans-serif; fill: #111; }
  .text { font: 26px Arial, sans-serif; fill: #111; }
  .small { font: 22px Arial, sans-serif; fill: #333; }
  .pin { font: bold 24px Arial, sans-serif; fill: #111; }
  .board { fill: #263238; stroke: #111; stroke-width: 4; }
  .component { fill: #fafafa; stroke: #222; stroke-width: 4; }
  .note { fill: #fff8dc; stroke: #c58b00; stroke-width: 3; }
  .wire-red { stroke: #d00000; stroke-width: 10; fill: none; stroke-linecap: round; }
  .wire-black { stroke: #111; stroke-width: 10; fill: none; stroke-linecap: round; }
  .wire-orange { stroke: #ef7d00; stroke-width: 10; fill: none; stroke-linecap: round; }
  .wire-purple { stroke: #6a1b9a; stroke-width: 10; fill: none; stroke-linecap: round; }
  .wire-yellow { stroke: #d9a300; stroke-width: 10; fill: none; stroke-linecap: round; }
  .wire-green { stroke: #008f3d; stroke-width: 10; fill: none; stroke-linecap: round; }
  .wire-blue { stroke: #0068c9; stroke-width: 10; fill: none; stroke-linecap: round; }
  .lead { stroke: #555; stroke-width: 7; fill: none; stroke-linecap: round; }
  .resistor { fill: #ead6a2; stroke: #5d4930; stroke-width: 4; }
  .ground { stroke: #111; stroke-width: 6; }
</style>
<rect width="100%" height="100%" fill="white"/>
<text x="60" y="80" class="title">7. DS18B20 Temperature Sensor</text>
<text x="60" y="125" class="subtitle">Three-pin sensor plus one 4.7 kohm pull-up resistor.</text>

<rect x="80" y="380" width="330" height="260" rx="24" class="board"/>
<text x="145" y="445" style="font:bold 38px Arial; fill:white;">ESP32 D1 R32</text>
<circle cx="390" cy="500" r="12" fill="white"/>
<text x="120" y="518" style="font:bold 32px Arial; fill:white;">GPIO23 / 3V3 / GND</text>

<rect x="780" y="300" width="300" height="400" rx="30" class="component"/>
<text x="835" y="360" class="label">DS18B20</text>
<line x1="840" y1="700" x2="840" y2="850" class="lead"/>
<line x1="930" y1="700" x2="930" y2="850" class="lead"/>
<line x1="1020" y1="700" x2="1020" y2="850" class="lead"/>
<text x="790" y="900" class="label">GND</text>
<text x="885" y="900" class="label">DATA</text>
<text x="985" y="900" class="label">VDD</text>

<path d="M390 430 H1020 V700" class="wire-orange"/>
<text x="450" y="400" class="label">3V3 -> VDD</text>

<path d="M390 500 H930 V700" class="wire-blue"/>
<text x="450" y="475" class="label">GPIO23 -> DATA</text>

<path d="M390 570 H840 V700" class="wire-black"/>
<text x="450" y="550" class="label">GND -> GND</text>

<rect x="1190" y="400" width="80" height="250" rx="25" class="resistor"/>
<text x="1115" y="355" class="label">4.7 kohm</text>
<path d="M1230 400 V260 H1020 V300" class="wire-orange"/>
<path d="M1230 650 V780 H930 V700" class="wire-blue"/>

<rect x="70" y="960" width="1460" height="90" rx="20" class="note"/>
<text x="110" y="1015" class="text">The 4.7 kohm resistor must be connected between DATA and 3V3.</text>
</svg>