<svg xmlns="http://www.w3.org/2000/svg" width="1800" height="1200" viewBox="0 0 1800 1200">
<style>
  .title{font-family:Arial,sans-serif;font-size:42px;font-weight:bold;fill:#111}
  .subtitle{font-family:Arial,sans-serif;font-size:24px;font-weight:bold;fill:#222}
  .txt{font-family:Arial,sans-serif;font-size:20px;fill:#111}
  .small{font-family:Arial,sans-serif;font-size:16px;fill:#111}
  .tiny{font-family:Arial,sans-serif;font-size:13px;fill:#111}
  .label{font-family:Arial,sans-serif;font-size:16px;font-weight:bold;fill:#111}
  .note{fill:#fff8d8;stroke:#d49c00;stroke-width:2}
  .box{fill:#f7f7f7;stroke:#333;stroke-width:2}
  .pin{fill:#222}
  .hole{fill:#f9f9f9;stroke:#999;stroke-width:1}
  .railp{stroke:#d40000;stroke-width:3}
  .railg{stroke:#0050c8;stroke-width:3}
  .wire5{stroke:#d40000;stroke-width:7;fill:none;stroke-linecap:round;stroke-linejoin:round}
  .wireg{stroke:#111;stroke-width:7;fill:none;stroke-linecap:round;stroke-linejoin:round}
  .wire33{stroke:#7b2dbd;stroke-width:7;fill:none;stroke-linecap:round;stroke-linejoin:round}
  .wireSig{stroke:#008c3a;stroke-width:7;fill:none;stroke-linecap:round;stroke-linejoin:round}
  .wireBuz{stroke:#f5b000;stroke-width:7;fill:none;stroke-linecap:round;stroke-linejoin:round}
  .wireBtn{stroke:#00a0a0;stroke-width:7;fill:none;stroke-linecap:round;stroke-linejoin:round}
  .wireLed{stroke:#df2020;stroke-width:7;fill:none;stroke-linecap:round;stroke-linejoin:round}
  .wireLedG{stroke:#00a64a;stroke-width:7;fill:none;stroke-linecap:round;stroke-linejoin:round}
  .res{fill:#f7e0b5;stroke:#533;stroke-width:2}
</style>

<text x="40" y="60" class="title">ESPHome Boiler Monitor</text>
<text x="42" y="95" class="subtitle">Kopplingsdäck-schema — exakt GPIO enligt projektet</text>

<rect x="40" y="130" width="360" height="145" rx="10" class="note"/>
<text x="60" y="165" class="subtitle">Viktigt</text>
<text x="60" y="198" class="txt">• Dela GND mellan allt.</text>
<text x="60" y="228" class="txt">• 5V bara till summer + ESP32 5V/VIN.</text>
<text x="60" y="258" class="txt">• GPIO34 får max 3.3V.</text>

<!-- Breadboard -->
<rect x="430" y="150" width="1200" height="690" rx="14" fill="#eeeeee" stroke="#aaa" stroke-width="3"/>
<line x1="470" y1="190" x2="1590" y2="190" class="railp"/>
<line x1="470" y1="225" x2="1590" y2="225" class="railg"/>
<line x1="470" y1="760" x2="1590" y2="760" class="railp"/>
<line x1="470" y1="795" x2="1590" y2="795" class="railg"/>
<text x="445" y="197" class="label" fill="#d40000">+</text>
<text x="445" y="232" class="label" fill="#0050c8">−</text>
<text x="1602" y="197" class="label" fill="#d40000">+</text>
<text x="1602" y="232" class="label" fill="#0050c8">−</text>

<!-- holes -->
<g opacity="0.85">
<circle cx="480" cy="290" r="4.2" class="hole"/>
<circle cx="500" cy="290" r="4.2" class="hole"/>
<circle cx="520" cy="290" r="4.2" class="hole"/>
<circle cx="540" cy="290" r="4.2" class="hole"/>
<circle cx="560" cy="290" r="4.2" class="hole"/>
<circle cx="580" cy="290" r="4.2" class="hole"/>
<circle cx="600" cy="290" r="4.2" class="hole"/>
<circle cx="620" cy="290" r="4.2" class="hole"/>
<circle cx="640" cy="290" r="4.2" class="hole"/>
<circle cx="660" cy="290" r="4.2" class="hole"/>
<circle cx="680" cy="290" r="4.2" class="hole"/>
<circle cx="700" cy="290" r="4.2" class="hole"/>
<circle cx="720" cy="290" r="4.2" class="hole"/>
<circle cx="740" cy="290" r="4.2" class="hole"/>
<circle cx="760" cy="290" r="4.2" class="hole"/>
<circle cx="780" cy="290" r="4.2" class="hole"/>
<circle cx="800" cy="290" r="4.2" class="hole"/>
<circle cx="820" cy="290" r="4.2" class="hole"/>
<circle cx="840" cy="290" r="4.2" class="hole"/>
<circle cx="860" cy="290" r="4.2" class="hole"/>
<circle cx="880" cy="290" r="4.2" class="hole"/>
<circle cx="900" cy="290" r="4.2" class="hole"/>
<circle cx="920" cy="290" r="4.2" class="hole"/>
<circle cx="940" cy="290" r="4.2" class="hole"/>
<circle cx="960" cy="290" r="4.2" class="hole"/>
<circle cx="980" cy="290" r="4.2" class="hole"/>
<circle cx="1000" cy="290" r="4.2" class="hole"/>
<circle cx="1020" cy="290" r="4.2" class="hole"/>
<circle cx="1040" cy="290" r="4.2" class="hole"/>
<circle cx="1060" cy="290" r="4.2" class="hole"/>
<circle cx="1080" cy="290" r="4.2" class="hole"/>
<circle cx="1100" cy="290" r="4.2" class="hole"/>
<circle cx="1120" cy="290" r="4.2" class="hole"/>
<circle cx="1140" cy="290" r="4.2" class="hole"/>
<circle cx="1160" cy="290" r="4.2" class="hole"/>
<circle cx="1180" cy="290" r="4.2" class="hole"/>
<circle cx="1200" cy="290" r="4.2" class="hole"/>
<circle cx="1220" cy="290" r="4.2" class="hole"/>
<circle cx="1240" cy="290" r="4.2" class="hole"/>
<circle cx="1260" cy="290" r="4.2" class="hole"/>
<circle cx="1280" cy="290" r="4.2" class="hole"/>
<circle cx="1300" cy="290" r="4.2" class="hole"/>
<circle cx="1320" cy="290" r="4.2" class="hole"/>
<circle cx="1340" cy="290" r="4.2" class="hole"/>
<circle cx="1360" cy="290" r="4.2" class="hole"/>
<circle cx="1380" cy="290" r="4.2" class="hole"/>
<circle cx="1400" cy="290" r="4.2" class="hole"/>
<circle cx="1420" cy="290" r="4.2" class="hole"/>
<circle cx="1440" cy="290" r="4.2" class="hole"/>
<circle cx="1460" cy="290" r="4.2" class="hole"/>
<circle cx="1480" cy="290" r="4.2" class="hole"/>
<circle cx="1500" cy="290" r="4.2" class="hole"/>
<circle cx="1520" cy="290" r="4.2" class="hole"/>
<circle cx="1540" cy="290" r="4.2" class="hole"/>
<circle cx="1560" cy="290" r="4.2" class="hole"/>
<circle cx="1580" cy="290" r="4.2" class="hole"/>
<circle cx="480" cy="325" r="4.2" class="hole"/>
<circle cx="500" cy="325" r="4.2" class="hole"/>
<circle cx="520" cy="325" r="4.2" class="hole"/>
<circle cx="540" cy="325" r="4.2" class="hole"/>
<circle cx="560" cy="325" r="4.2" class="hole"/>
<circle cx="580" cy="325" r="4.2" class="hole"/>
<circle cx="600" cy="325" r="4.2" class="hole"/>
<circle cx="620" cy="325" r="4.2" class="hole"/>
<circle cx="640" cy="325" r="4.2" class="hole"/>
<circle cx="660" cy="325" r="4.2" class="hole"/>
<circle cx="680" cy="325" r="4.2" class="hole"/>
<circle cx="700" cy="325" r="4.2" class="hole"/>
<circle cx="720" cy="325" r="4.2" class="hole"/>
<circle cx="740" cy="325" r="4.2" class="hole"/>
<circle cx="760" cy="325" r="4.2" class="hole"/>
<circle cx="780" cy="325" r="4.2" class="hole"/>
<circle cx="800" cy="325" r="4.2" class="hole"/>
<circle cx="820" cy="325" r="4.2" class="hole"/>
<circle cx="840" cy="325" r="4.2" class="hole"/>
<circle cx="860" cy="325" r="4.2" class="hole"/>
<circle cx="880" cy="325" r="4.2" class="hole"/>
<circle cx="900" cy="325" r="4.2" class="hole"/>
<circle cx="920" cy="325" r="4.2" class="hole"/>
<circle cx="940" cy="325" r="4.2" class="hole"/>
<circle cx="960" cy="325" r="4.2" class="hole"/>
<circle cx="980" cy="325" r="4.2" class="hole"/>
<circle cx="1000" cy="325" r="4.2" class="hole"/>
<circle cx="1020" cy="325" r="4.2" class="hole"/>
<circle cx="1040" cy="325" r="4.2" class="hole"/>
<circle cx="1060" cy="325" r="4.2" class="hole"/>
<circle cx="1080" cy="325" r="4.2" class="hole"/>
<circle cx="1100" cy="325" r="4.2" class="hole"/>
<circle cx="1120" cy="325" r="4.2" class="hole"/>
<circle cx="1140" cy="325" r="4.2" class="hole"/>
<circle cx="1160" cy="325" r="4.2" class="hole"/>
<circle cx="1180" cy="325" r="4.2" class="hole"/>
<circle cx="1200" cy="325" r="4.2" class="hole"/>
<circle cx="1220" cy="325" r="4.2" class="hole"/>
<circle cx="1240" cy="325" r="4.2" class="hole"/>
<circle cx="1260" cy="325" r="4.2" class="hole"/>
<circle cx="1280" cy="325" r="4.2" class="hole"/>
<circle cx="1300" cy="325" r="4.2" class="hole"/>
<circle cx="1320" cy="325" r="4.2" class="hole"/>
<circle cx="1340" cy="325" r="4.2" class="hole"/>
<circle cx="1360" cy="325" r="4.2" class="hole"/>
<circle cx="1380" cy="325" r="4.2" class="hole"/>
<circle cx="1400" cy="325" r="4.2" class="hole"/>
<circle cx="1420" cy="325" r="4.2" class="hole"/>
<circle cx="1440" cy="325" r="4.2" class="hole"/>
<circle cx="1460" cy="325" r="4.2" class="hole"/>
<circle cx="1480" cy="325" r="4.2" class="hole"/>
<circle cx="1500" cy="325" r="4.2" class="hole"/>
<circle cx="1520" cy="325" r="4.2" class="hole"/>
<circle cx="1540" cy="325" r="4.2" class="hole"/>
<circle cx="1560" cy="325" r="4.2" class="hole"/>
<circle cx="1580" cy="325" r="4.2" class="hole"/>
<circle cx="480" cy="360" r="4.2" class="hole"/>
<circle cx="500" cy="360" r="4.2" class="hole"/>
<circle cx="520" cy="360" r="4.2" class="hole"/>
<circle cx="540" cy="360" r="4.2" class="hole"/>
<circle cx="560" cy="360" r="4.2" class="hole"/>
<circle cx="580" cy="360" r="4.2" class="hole"/>
<circle cx="600" cy="360" r="4.2" class="hole"/>
<circle cx="620" cy="360" r="4.2" class="hole"/>
<circle cx="640" cy="360" r="4.2" class="hole"/>
<circle cx="660" cy="360" r="4.2" class="hole"/>
<circle cx="680" cy="360" r="4.2" class="hole"/>
<circle cx="700" cy="360" r="4.2" class="hole"/>
<circle cx="720" cy="360" r="4.2" class="hole"/>
<circle cx="740" cy="360" r="4.2" class="hole"/>
<circle cx="760" cy="360" r="4.2" class="hole"/>
<circle cx="780" cy="360" r="4.2" class="hole"/>
<circle cx="800" cy="360" r="4.2" class="hole"/>
<circle cx="820" cy="360" r="4.2" class="hole"/>
<circle cx="840" cy="360" r="4.2" class="hole"/>
<circle cx="860" cy="360" r="4.2" class="hole"/>
<circle cx="880" cy="360" r="4.2" class="hole"/>
<circle cx="900" cy="360" r="4.2" class="hole"/>
<circle cx="920" cy="360" r="4.2" class="hole"/>
<circle cx="940" cy="360" r="4.2" class="hole"/>
<circle cx="960" cy="360" r="4.2" class="hole"/>
<circle cx="980" cy="360" r="4.2" class="hole"/>
<circle cx="1000" cy="360" r="4.2" class="hole"/>
<circle cx="1020" cy="360" r="4.2" class="hole"/>
<circle cx="1040" cy="360" r="4.2" class="hole"/>
<circle cx="1060" cy="360" r="4.2" class="hole"/>
<circle cx="1080" cy="360" r="4.2" class="hole"/>
<circle cx="1100" cy="360" r="4.2" class="hole"/>
<circle cx="1120" cy="360" r="4.2" class="hole"/>
<circle cx="1140" cy="360" r="4.2" class="hole"/>
<circle cx="1160" cy="360" r="4.2" class="hole"/>
<circle cx="1180" cy="360" r="4.2" class="hole"/>
<circle cx="1200" cy="360" r="4.2" class="hole"/>
<circle cx="1220" cy="360" r="4.2" class="hole"/>
<circle cx="1240" cy="360" r="4.2" class="hole"/>
<circle cx="1260" cy="360" r="4.2" class="hole"/>
<circle cx="1280" cy="360" r="4.2" class="hole"/>
<circle cx="1300" cy="360" r="4.2" class="hole"/>
<circle cx="1320" cy="360" r="4.2" class="hole"/>
<circle cx="1340" cy="360" r="4.2" class="hole"/>
<circle cx="1360" cy="360" r="4.2" class="hole"/>
<circle cx="1380" cy="360" r="4.2" class="hole"/>
<circle cx="1400" cy="360" r="4.2" class="hole"/>
<circle cx="1420" cy="360" r="4.2" class="hole"/>
<circle cx="1440" cy="360" r="4.2" class="hole"/>
<circle cx="1460" cy="360" r="4.2" class="hole"/>
<circle cx="1480" cy="360" r="4.2" class="hole"/>
<circle cx="1500" cy="360" r="4.2" class="hole"/>
<circle cx="1520" cy="360" r="4.2" class="hole"/>
<circle cx="1540" cy="360" r="4.2" class="hole"/>
<circle cx="1560" cy="360" r="4.2" class="hole"/>
<circle cx="1580" cy="360" r="4.2" class="hole"/>
<circle cx="480" cy="395" r="4.2" class="hole"/>
<circle cx="500" cy="395" r="4.2" class="hole"/>
<circle cx="520" cy="395" r="4.2" class="hole"/>
<circle cx="540" cy="395" r="4.2" class="hole"/>
<circle cx="560" cy="395" r="4.2" class="hole"/>
<circle cx="580" cy="395" r="4.2" class="hole"/>
<circle cx="600" cy="395" r="4.2" class="hole"/>
<circle cx="620" cy="395" r="4.2" class="hole"/>
<circle cx="640" cy="395" r="4.2" class="hole"/>
<circle cx="660" cy="395" r="4.2" class="hole"/>
<circle cx="680" cy="395" r="4.2" class="hole"/>
<circle cx="700" cy="395" r="4.2" class="hole"/>
<circle cx="720" cy="395" r="4.2" class="hole"/>
<circle cx="740" cy="395" r="4.2" class="hole"/>
<circle cx="760" cy="395" r="4.2" class="hole"/>
<circle cx="780" cy="395" r="4.2" class="hole"/>
<circle cx="800" cy="395" r="4.2" class="hole"/>
<circle cx="820" cy="395" r="4.2" class="hole"/>
<circle cx="840" cy="395" r="4.2" class="hole"/>
<circle cx="860" cy="395" r="4.2" class="hole"/>
<circle cx="880" cy="395" r="4.2" class="hole"/>
<circle cx="900" cy="395" r="4.2" class="hole"/>
<circle cx="920" cy="395" r="4.2" class="hole"/>
<circle cx="940" cy="395" r="4.2" class="hole"/>
<circle cx="960" cy="395" r="4.2" class="hole"/>
<circle cx="980" cy="395" r="4.2" class="hole"/>
<circle cx="1000" cy="395" r="4.2" class="hole"/>
<circle cx="1020" cy="395" r="4.2" class="hole"/>
<circle cx="1040" cy="395" r="4.2" class="hole"/>
<circle cx="1060" cy="395" r="4.2" class="hole"/>
<circle cx="1080" cy="395" r="4.2" class="hole"/>
<circle cx="1100" cy="395" r="4.2" class="hole"/>
<circle cx="1120" cy="395" r="4.2" class="hole"/>
<circle cx="1140" cy="395" r="4.2" class="hole"/>
<circle cx="1160" cy="395" r="4.2" class="hole"/>
<circle cx="1180" cy="395" r="4.2" class="hole"/>
<circle cx="1200" cy="395" r="4.2" class="hole"/>
<circle cx="1220" cy="395" r="4.2" class="hole"/>
<circle cx="1240" cy="395" r="4.2" class="hole"/>
<circle cx="1260" cy="395" r="4.2" class="hole"/>
<circle cx="1280" cy="395" r="4.2" class="hole"/>
<circle cx="1300" cy="395" r="4.2" class="hole"/>
<circle cx="1320" cy="395" r="4.2" class="hole"/>
<circle cx="1340" cy="395" r="4.2" class="hole"/>
<circle cx="1360" cy="395" r="4.2" class="hole"/>
<circle cx="1380" cy="395" r="4.2" class="hole"/>
<circle cx="1400" cy="395" r="4.2" class="hole"/>
<circle cx="1420" cy="395" r="4.2" class="hole"/>
<circle cx="1440" cy="395" r="4.2" class="hole"/>
<circle cx="1460" cy="395" r="4.2" class="hole"/>
<circle cx="1480" cy="395" r="4.2" class="hole"/>
<circle cx="1500" cy="395" r="4.2" class="hole"/>
<circle cx="1520" cy="395" r="4.2" class="hole"/>
<circle cx="1540" cy="395" r="4.2" class="hole"/>
<circle cx="1560" cy="395" r="4.2" class="hole"/>
<circle cx="1580" cy="395" r="4.2" class="hole"/>
<circle cx="480" cy="430" r="4.2" class="hole"/>
<circle cx="500" cy="430" r="4.2" class="hole"/>
<circle cx="520" cy="430" r="4.2" class="hole"/>
<circle cx="540" cy="430" r="4.2" class="hole"/>
<circle cx="560" cy="430" r="4.2" class="hole"/>
<circle cx="580" cy="430" r="4.2" class="hole"/>
<circle cx="600" cy="430" r="4.2" class="hole"/>
<circle cx="620" cy="430" r="4.2" class="hole"/>
<circle cx="640" cy="430" r="4.2" class="hole"/>
<circle cx="660" cy="430" r="4.2" class="hole"/>
<circle cx="680" cy="430" r="4.2" class="hole"/>
<circle cx="700" cy="430" r="4.2" class="hole"/>
<circle cx="720" cy="430" r="4.2" class="hole"/>
<circle cx="740" cy="430" r="4.2" class="hole"/>
<circle cx="760" cy="430" r="4.2" class="hole"/>
<circle cx="780" cy="430" r="4.2" class="hole"/>
<circle cx="800" cy="430" r="4.2" class="hole"/>
<circle cx="820" cy="430" r="4.2" class="hole"/>
<circle cx="840" cy="430" r="4.2" class="hole"/>
<circle cx="860" cy="430" r="4.2" class="hole"/>
<circle cx="880" cy="430" r="4.2" class="hole"/>
<circle cx="900" cy="430" r="4.2" class="hole"/>
<circle cx="920" cy="430" r="4.2" class="hole"/>
<circle cx="940" cy="430" r="4.2" class="hole"/>
<circle cx="960" cy="430" r="4.2" class="hole"/>
<circle cx="980" cy="430" r="4.2" class="hole"/>
<circle cx="1000" cy="430" r="4.2" class="hole"/>
<circle cx="1020" cy="430" r="4.2" class="hole"/>
<circle cx="1040" cy="430" r="4.2" class="hole"/>
<circle cx="1060" cy="430" r="4.2" class="hole"/>
<circle cx="1080" cy="430" r="4.2" class="hole"/>
<circle cx="1100" cy="430" r="4.2" class="hole"/>
<circle cx="1120" cy="430" r="4.2" class="hole"/>
<circle cx="1140" cy="430" r="4.2" class="hole"/>
<circle cx="1160" cy="430" r="4.2" class="hole"/>
<circle cx="1180" cy="430" r="4.2" class="hole"/>
<circle cx="1200" cy="430" r="4.2" class="hole"/>
<circle cx="1220" cy="430" r="4.2" class="hole"/>
<circle cx="1240" cy="430" r="4.2" class="hole"/>
<circle cx="1260" cy="430" r="4.2" class="hole"/>
<circle cx="1280" cy="430" r="4.2" class="hole"/>
<circle cx="1300" cy="430" r="4.2" class="hole"/>
<circle cx="1320" cy="430" r="4.2" class="hole"/>
<circle cx="1340" cy="430" r="4.2" class="hole"/>
<circle cx="1360" cy="430" r="4.2" class="hole"/>
<circle cx="1380" cy="430" r="4.2" class="hole"/>
<circle cx="1400" cy="430" r="4.2" class="hole"/>
<circle cx="1420" cy="430" r="4.2" class="hole"/>
<circle cx="1440" cy="430" r="4.2" class="hole"/>
<circle cx="1460" cy="430" r="4.2" class="hole"/>
<circle cx="1480" cy="430" r="4.2" class="hole"/>
<circle cx="1500" cy="430" r="4.2" class="hole"/>
<circle cx="1520" cy="430" r="4.2" class="hole"/>
<circle cx="1540" cy="430" r="4.2" class="hole"/>
<circle cx="1560" cy="430" r="4.2" class="hole"/>
<circle cx="1580" cy="430" r="4.2" class="hole"/>
<circle cx="480" cy="520" r="4.2" class="hole"/>
<circle cx="500" cy="520" r="4.2" class="hole"/>
<circle cx="520" cy="520" r="4.2" class="hole"/>
<circle cx="540" cy="520" r="4.2" class="hole"/>
<circle cx="560" cy="520" r="4.2" class="hole"/>
<circle cx="580" cy="520" r="4.2" class="hole"/>
<circle cx="600" cy="520" r="4.2" class="hole"/>
<circle cx="620" cy="520" r="4.2" class="hole"/>
<circle cx="640" cy="520" r="4.2" class="hole"/>
<circle cx="660" cy="520" r="4.2" class="hole"/>
<circle cx="680" cy="520" r="4.2" class="hole"/>
<circle cx="700" cy="520" r="4.2" class="hole"/>
<circle cx="720" cy="520" r="4.2" class="hole"/>
<circle cx="740" cy="520" r="4.2" class="hole"/>
<circle cx="760" cy="520" r="4.2" class="hole"/>
<circle cx="780" cy="520" r="4.2" class="hole"/>
<circle cx="800" cy="520" r="4.2" class="hole"/>
<circle cx="820" cy="520" r="4.2" class="hole"/>
<circle cx="840" cy="520" r="4.2" class="hole"/>
<circle cx="860" cy="520" r="4.2" class="hole"/>
<circle cx="880" cy="520" r="4.2" class="hole"/>
<circle cx="900" cy="520" r="4.2" class="hole"/>
<circle cx="920" cy="520" r="4.2" class="hole"/>
<circle cx="940" cy="520" r="4.2" class="hole"/>
<circle cx="960" cy="520" r="4.2" class="hole"/>
<circle cx="980" cy="520" r="4.2" class="hole"/>
<circle cx="1000" cy="520" r="4.2" class="hole"/>
<circle cx="1020" cy="520" r="4.2" class="hole"/>
<circle cx="1040" cy="520" r="4.2" class="hole"/>
<circle cx="1060" cy="520" r="4.2" class="hole"/>
<circle cx="1080" cy="520" r="4.2" class="hole"/>
<circle cx="1100" cy="520" r="4.2" class="hole"/>
<circle cx="1120" cy="520" r="4.2" class="hole"/>
<circle cx="1140" cy="520" r="4.2" class="hole"/>
<circle cx="1160" cy="520" r="4.2" class="hole"/>
<circle cx="1180" cy="520" r="4.2" class="hole"/>
<circle cx="1200" cy="520" r="4.2" class="hole"/>
<circle cx="1220" cy="520" r="4.2" class="hole"/>
<circle cx="1240" cy="520" r="4.2" class="hole"/>
<circle cx="1260" cy="520" r="4.2" class="hole"/>
<circle cx="1280" cy="520" r="4.2" class="hole"/>
<circle cx="1300" cy="520" r="4.2" class="hole"/>
<circle cx="1320" cy="520" r="4.2" class="hole"/>
<circle cx="1340" cy="520" r="4.2" class="hole"/>
<circle cx="1360" cy="520" r="4.2" class="hole"/>
<circle cx="1380" cy="520" r="4.2" class="hole"/>
<circle cx="1400" cy="520" r="4.2" class="hole"/>
<circle cx="1420" cy="520" r="4.2" class="hole"/>
<circle cx="1440" cy="520" r="4.2" class="hole"/>
<circle cx="1460" cy="520" r="4.2" class="hole"/>
<circle cx="1480" cy="520" r="4.2" class="hole"/>
<circle cx="1500" cy="520" r="4.2" class="hole"/>
<circle cx="1520" cy="520" r="4.2" class="hole"/>
<circle cx="1540" cy="520" r="4.2" class="hole"/>
<circle cx="1560" cy="520" r="4.2" class="hole"/>
<circle cx="1580" cy="520" r="4.2" class="hole"/>
<circle cx="480" cy="555" r="4.2" class="hole"/>
<circle cx="500" cy="555" r="4.2" class="hole"/>
<circle cx="520" cy="555" r="4.2" class="hole"/>
<circle cx="540" cy="555" r="4.2" class="hole"/>
<circle cx="560" cy="555" r="4.2" class="hole"/>
<circle cx="580" cy="555" r="4.2" class="hole"/>
<circle cx="600" cy="555" r="4.2" class="hole"/>
<circle cx="620" cy="555" r="4.2" class="hole"/>
<circle cx="640" cy="555" r="4.2" class="hole"/>
<circle cx="660" cy="555" r="4.2" class="hole"/>
<circle cx="680" cy="555" r="4.2" class="hole"/>
<circle cx="700" cy="555" r="4.2" class="hole"/>
<circle cx="720" cy="555" r="4.2" class="hole"/>
<circle cx="740" cy="555" r="4.2" class="hole"/>
<circle cx="760" cy="555" r="4.2" class="hole"/>
<circle cx="780" cy="555" r="4.2" class="hole"/>
<circle cx="800" cy="555" r="4.2" class="hole"/>
<circle cx="820" cy="555" r="4.2" class="hole"/>
<circle cx="840" cy="555" r="4.2" class="hole"/>
<circle cx="860" cy="555" r="4.2" class="hole"/>
<circle cx="880" cy="555" r="4.2" class="hole"/>
<circle cx="900" cy="555" r="4.2" class="hole"/>
<circle cx="920" cy="555" r="4.2" class="hole"/>
<circle cx="940" cy="555" r="4.2" class="hole"/>
<circle cx="960" cy="555" r="4.2" class="hole"/>
<circle cx="980" cy="555" r="4.2" class="hole"/>
<circle cx="1000" cy="555" r="4.2" class="hole"/>
<circle cx="1020" cy="555" r="4.2" class="hole"/>
<circle cx="1040" cy="555" r="4.2" class="hole"/>
<circle cx="1060" cy="555" r="4.2" class="hole"/>
<circle cx="1080" cy="555" r="4.2" class="hole"/>
<circle cx="1100" cy="555" r="4.2" class="hole"/>
<circle cx="1120" cy="555" r="4.2" class="hole"/>
<circle cx="1140" cy="555" r="4.2" class="hole"/>
<circle cx="1160" cy="555" r="4.2" class="hole"/>
<circle cx="1180" cy="555" r="4.2" class="hole"/>
<circle cx="1200" cy="555" r="4.2" class="hole"/>
<circle cx="1220" cy="555" r="4.2" class="hole"/>
<circle cx="1240" cy="555" r="4.2" class="hole"/>
<circle cx="1260" cy="555" r="4.2" class="hole"/>
<circle cx="1280" cy="555" r="4.2" class="hole"/>
<circle cx="1300" cy="555" r="4.2" class="hole"/>
<circle cx="1320" cy="555" r="4.2" class="hole"/>
<circle cx="1340" cy="555" r="4.2" class="hole"/>
<circle cx="1360" cy="555" r="4.2" class="hole"/>
<circle cx="1380" cy="555" r="4.2" class="hole"/>
<circle cx="1400" cy="555" r="4.2" class="hole"/>
<circle cx="1420" cy="555" r="4.2" class="hole"/>
<circle cx="1440" cy="555" r="4.2" class="hole"/>
<circle cx="1460" cy="555" r="4.2" class="hole"/>
<circle cx="1480" cy="555" r="4.2" class="hole"/>
<circle cx="1500" cy="555" r="4.2" class="hole"/>
<circle cx="1520" cy="555" r="4.2" class="hole"/>
<circle cx="1540" cy="555" r="4.2" class="hole"/>
<circle cx="1560" cy="555" r="4.2" class="hole"/>
<circle cx="1580" cy="555" r="4.2" class="hole"/>
<circle cx="480" cy="590" r="4.2" class="hole"/>
<circle cx="500" cy="590" r="4.2" class="hole"/>
<circle cx="520" cy="590" r="4.2" class="hole"/>
<circle cx="540" cy="590" r="4.2" class="hole"/>
<circle cx="560" cy="590" r="4.2" class="hole"/>
<circle cx="580" cy="590" r="4.2" class="hole"/>
<circle cx="600" cy="590" r="4.2" class="hole"/>
<circle cx="620" cy="590" r="4.2" class="hole"/>
<circle cx="640" cy="590" r="4.2" class="hole"/>
<circle cx="660" cy="590" r="4.2" class="hole"/>
<circle cx="680" cy="590" r="4.2" class="hole"/>
<circle cx="700" cy="590" r="4.2" class="hole"/>
<circle cx="720" cy="590" r="4.2" class="hole"/>
<circle cx="740" cy="590" r="4.2" class="hole"/>
<circle cx="760" cy="590" r="4.2" class="hole"/>
<circle cx="780" cy="590" r="4.2" class="hole"/>
<circle cx="800" cy="590" r="4.2" class="hole"/>
<circle cx="820" cy="590" r="4.2" class="hole"/>
<circle cx="840" cy="590" r="4.2" class="hole"/>
<circle cx="860" cy="590" r="4.2" class="hole"/>
<circle cx="880" cy="590" r="4.2" class="hole"/>
<circle cx="900" cy="590" r="4.2" class="hole"/>
<circle cx="920" cy="590" r="4.2" class="hole"/>
<circle cx="940" cy="590" r="4.2" class="hole"/>
<circle cx="960" cy="590" r="4.2" class="hole"/>
<circle cx="980" cy="590" r="4.2" class="hole"/>
<circle cx="1000" cy="590" r="4.2" class="hole"/>
<circle cx="1020" cy="590" r="4.2" class="hole"/>
<circle cx="1040" cy="590" r="4.2" class="hole"/>
<circle cx="1060" cy="590" r="4.2" class="hole"/>
<circle cx="1080" cy="590" r="4.2" class="hole"/>
<circle cx="1100" cy="590" r="4.2" class="hole"/>
<circle cx="1120" cy="590" r="4.2" class="hole"/>
<circle cx="1140" cy="590" r="4.2" class="hole"/>
<circle cx="1160" cy="590" r="4.2" class="hole"/>
<circle cx="1180" cy="590" r="4.2" class="hole"/>
<circle cx="1200" cy="590" r="4.2" class="hole"/>
<circle cx="1220" cy="590" r="4.2" class="hole"/>
<circle cx="1240" cy="590" r="4.2" class="hole"/>
<circle cx="1260" cy="590" r="4.2" class="hole"/>
<circle cx="1280" cy="590" r="4.2" class="hole"/>
<circle cx="1300" cy="590" r="4.2" class="hole"/>
<circle cx="1320" cy="590" r="4.2" class="hole"/>
<circle cx="1340" cy="590" r="4.2" class="hole"/>
<circle cx="1360" cy="590" r="4.2" class="hole"/>
<circle cx="1380" cy="590" r="4.2" class="hole"/>
<circle cx="1400" cy="590" r="4.2" class="hole"/>
<circle cx="1420" cy="590" r="4.2" class="hole"/>
<circle cx="1440" cy="590" r="4.2" class="hole"/>
<circle cx="1460" cy="590" r="4.2" class="hole"/>
<circle cx="1480" cy="590" r="4.2" class="hole"/>
<circle cx="1500" cy="590" r="4.2" class="hole"/>
<circle cx="1520" cy="590" r="4.2" class="hole"/>
<circle cx="1540" cy="590" r="4.2" class="hole"/>
<circle cx="1560" cy="590" r="4.2" class="hole"/>
<circle cx="1580" cy="590" r="4.2" class="hole"/>
<circle cx="480" cy="625" r="4.2" class="hole"/>
<circle cx="500" cy="625" r="4.2" class="hole"/>
<circle cx="520" cy="625" r="4.2" class="hole"/>
<circle cx="540" cy="625" r="4.2" class="hole"/>
<circle cx="560" cy="625" r="4.2" class="hole"/>
<circle cx="580" cy="625" r="4.2" class="hole"/>
<circle cx="600" cy="625" r="4.2" class="hole"/>
<circle cx="620" cy="625" r="4.2" class="hole"/>
<circle cx="640" cy="625" r="4.2" class="hole"/>
<circle cx="660" cy="625" r="4.2" class="hole"/>
<circle cx="680" cy="625" r="4.2" class="hole"/>
<circle cx="700" cy="625" r="4.2" class="hole"/>
<circle cx="720" cy="625" r="4.2" class="hole"/>
<circle cx="740" cy="625" r="4.2" class="hole"/>
<circle cx="760" cy="625" r="4.2" class="hole"/>
<circle cx="780" cy="625" r="4.2" class="hole"/>
<circle cx="800" cy="625" r="4.2" class="hole"/>
<circle cx="820" cy="625" r="4.2" class="hole"/>
<circle cx="840" cy="625" r="4.2" class="hole"/>
<circle cx="860" cy="625" r="4.2" class="hole"/>
<circle cx="880" cy="625" r="4.2" class="hole"/>
<circle cx="900" cy="625" r="4.2" class="hole"/>
<circle cx="920" cy="625" r="4.2" class="hole"/>
<circle cx="940" cy="625" r="4.2" class="hole"/>
<circle cx="960" cy="625" r="4.2" class="hole"/>
<circle cx="980" cy="625" r="4.2" class="hole"/>
<circle cx="1000" cy="625" r="4.2" class="hole"/>
<circle cx="1020" cy="625" r="4.2" class="hole"/>
<circle cx="1040" cy="625" r="4.2" class="hole"/>
<circle cx="1060" cy="625" r="4.2" class="hole"/>
<circle cx="1080" cy="625" r="4.2" class="hole"/>
<circle cx="1100" cy="625" r="4.2" class="hole"/>
<circle cx="1120" cy="625" r="4.2" class="hole"/>
<circle cx="1140" cy="625" r="4.2" class="hole"/>
<circle cx="1160" cy="625" r="4.2" class="hole"/>
<circle cx="1180" cy="625" r="4.2" class="hole"/>
<circle cx="1200" cy="625" r="4.2" class="hole"/>
<circle cx="1220" cy="625" r="4.2" class="hole"/>
<circle cx="1240" cy="625" r="4.2" class="hole"/>
<circle cx="1260" cy="625" r="4.2" class="hole"/>
<circle cx="1280" cy="625" r="4.2" class="hole"/>
<circle cx="1300" cy="625" r="4.2" class="hole"/>
<circle cx="1320" cy="625" r="4.2" class="hole"/>
<circle cx="1340" cy="625" r="4.2" class="hole"/>
<circle cx="1360" cy="625" r="4.2" class="hole"/>
<circle cx="1380" cy="625" r="4.2" class="hole"/>
<circle cx="1400" cy="625" r="4.2" class="hole"/>
<circle cx="1420" cy="625" r="4.2" class="hole"/>
<circle cx="1440" cy="625" r="4.2" class="hole"/>
<circle cx="1460" cy="625" r="4.2" class="hole"/>
<circle cx="1480" cy="625" r="4.2" class="hole"/>
<circle cx="1500" cy="625" r="4.2" class="hole"/>
<circle cx="1520" cy="625" r="4.2" class="hole"/>
<circle cx="1540" cy="625" r="4.2" class="hole"/>
<circle cx="1560" cy="625" r="4.2" class="hole"/>
<circle cx="1580" cy="625" r="4.2" class="hole"/>
<circle cx="480" cy="660" r="4.2" class="hole"/>
<circle cx="500" cy="660" r="4.2" class="hole"/>
<circle cx="520" cy="660" r="4.2" class="hole"/>
<circle cx="540" cy="660" r="4.2" class="hole"/>
<circle cx="560" cy="660" r="4.2" class="hole"/>
<circle cx="580" cy="660" r="4.2" class="hole"/>
<circle cx="600" cy="660" r="4.2" class="hole"/>
<circle cx="620" cy="660" r="4.2" class="hole"/>
<circle cx="640" cy="660" r="4.2" class="hole"/>
<circle cx="660" cy="660" r="4.2" class="hole"/>
<circle cx="680" cy="660" r="4.2" class="hole"/>
<circle cx="700" cy="660" r="4.2" class="hole"/>
<circle cx="720" cy="660" r="4.2" class="hole"/>
<circle cx="740" cy="660" r="4.2" class="hole"/>
<circle cx="760" cy="660" r="4.2" class="hole"/>
<circle cx="780" cy="660" r="4.2" class="hole"/>
<circle cx="800" cy="660" r="4.2" class="hole"/>
<circle cx="820" cy="660" r="4.2" class="hole"/>
<circle cx="840" cy="660" r="4.2" class="hole"/>
<circle cx="860" cy="660" r="4.2" class="hole"/>
<circle cx="880" cy="660" r="4.2" class="hole"/>
<circle cx="900" cy="660" r="4.2" class="hole"/>
<circle cx="920" cy="660" r="4.2" class="hole"/>
<circle cx="940" cy="660" r="4.2" class="hole"/>
<circle cx="960" cy="660" r="4.2" class="hole"/>
<circle cx="980" cy="660" r="4.2" class="hole"/>
<circle cx="1000" cy="660" r="4.2" class="hole"/>
<circle cx="1020" cy="660" r="4.2" class="hole"/>
<circle cx="1040" cy="660" r="4.2" class="hole"/>
<circle cx="1060" cy="660" r="4.2" class="hole"/>
<circle cx="1080" cy="660" r="4.2" class="hole"/>
<circle cx="1100" cy="660" r="4.2" class="hole"/>
<circle cx="1120" cy="660" r="4.2" class="hole"/>
<circle cx="1140" cy="660" r="4.2" class="hole"/>
<circle cx="1160" cy="660" r="4.2" class="hole"/>
<circle cx="1180" cy="660" r="4.2" class="hole"/>
<circle cx="1200" cy="660" r="4.2" class="hole"/>
<circle cx="1220" cy="660" r="4.2" class="hole"/>
<circle cx="1240" cy="660" r="4.2" class="hole"/>
<circle cx="1260" cy="660" r="4.2" class="hole"/>
<circle cx="1280" cy="660" r="4.2" class="hole"/>
<circle cx="1300" cy="660" r="4.2" class="hole"/>
<circle cx="1320" cy="660" r="4.2" class="hole"/>
<circle cx="1340" cy="660" r="4.2" class="hole"/>
<circle cx="1360" cy="660" r="4.2" class="hole"/>
<circle cx="1380" cy="660" r="4.2" class="hole"/>
<circle cx="1400" cy="660" r="4.2" class="hole"/>
<circle cx="1420" cy="660" r="4.2" class="hole"/>
<circle cx="1440" cy="660" r="4.2" class="hole"/>
<circle cx="1460" cy="660" r="4.2" class="hole"/>
<circle cx="1480" cy="660" r="4.2" class="hole"/>
<circle cx="1500" cy="660" r="4.2" class="hole"/>
<circle cx="1520" cy="660" r="4.2" class="hole"/>
<circle cx="1540" cy="660" r="4.2" class="hole"/>
<circle cx="1560" cy="660" r="4.2" class="hole"/>
<circle cx="1580" cy="660" r="4.2" class="hole"/>
<circle cx="480" cy="190" r="4" class="hole"/>
<circle cx="500" cy="190" r="4" class="hole"/>
<circle cx="520" cy="190" r="4" class="hole"/>
<circle cx="540" cy="190" r="4" class="hole"/>
<circle cx="560" cy="190" r="4" class="hole"/>
<circle cx="580" cy="190" r="4" class="hole"/>
<circle cx="600" cy="190" r="4" class="hole"/>
<circle cx="620" cy="190" r="4" class="hole"/>
<circle cx="640" cy="190" r="4" class="hole"/>
<circle cx="660" cy="190" r="4" class="hole"/>
<circle cx="680" cy="190" r="4" class="hole"/>
<circle cx="700" cy="190" r="4" class="hole"/>
<circle cx="720" cy="190" r="4" class="hole"/>
<circle cx="740" cy="190" r="4" class="hole"/>
<circle cx="760" cy="190" r="4" class="hole"/>
<circle cx="780" cy="190" r="4" class="hole"/>
<circle cx="800" cy="190" r="4" class="hole"/>
<circle cx="820" cy="190" r="4" class="hole"/>
<circle cx="840" cy="190" r="4" class="hole"/>
<circle cx="860" cy="190" r="4" class="hole"/>
<circle cx="880" cy="190" r="4" class="hole"/>
<circle cx="900" cy="190" r="4" class="hole"/>
<circle cx="920" cy="190" r="4" class="hole"/>
<circle cx="940" cy="190" r="4" class="hole"/>
<circle cx="960" cy="190" r="4" class="hole"/>
<circle cx="980" cy="190" r="4" class="hole"/>
<circle cx="1000" cy="190" r="4" class="hole"/>
<circle cx="1020" cy="190" r="4" class="hole"/>
<circle cx="1040" cy="190" r="4" class="hole"/>
<circle cx="1060" cy="190" r="4" class="hole"/>
<circle cx="1080" cy="190" r="4" class="hole"/>
<circle cx="1100" cy="190" r="4" class="hole"/>
<circle cx="1120" cy="190" r="4" class="hole"/>
<circle cx="1140" cy="190" r="4" class="hole"/>
<circle cx="1160" cy="190" r="4" class="hole"/>
<circle cx="1180" cy="190" r="4" class="hole"/>
<circle cx="1200" cy="190" r="4" class="hole"/>
<circle cx="1220" cy="190" r="4" class="hole"/>
<circle cx="1240" cy="190" r="4" class="hole"/>
<circle cx="1260" cy="190" r="4" class="hole"/>
<circle cx="1280" cy="190" r="4" class="hole"/>
<circle cx="1300" cy="190" r="4" class="hole"/>
<circle cx="1320" cy="190" r="4" class="hole"/>
<circle cx="1340" cy="190" r="4" class="hole"/>
<circle cx="1360" cy="190" r="4" class="hole"/>
<circle cx="1380" cy="190" r="4" class="hole"/>
<circle cx="1400" cy="190" r="4" class="hole"/>
<circle cx="1420" cy="190" r="4" class="hole"/>
<circle cx="1440" cy="190" r="4" class="hole"/>
<circle cx="1460" cy="190" r="4" class="hole"/>
<circle cx="1480" cy="190" r="4" class="hole"/>
<circle cx="1500" cy="190" r="4" class="hole"/>
<circle cx="1520" cy="190" r="4" class="hole"/>
<circle cx="1540" cy="190" r="4" class="hole"/>
<circle cx="1560" cy="190" r="4" class="hole"/>
<circle cx="1580" cy="190" r="4" class="hole"/>
<circle cx="480" cy="225" r="4" class="hole"/>
<circle cx="500" cy="225" r="4" class="hole"/>
<circle cx="520" cy="225" r="4" class="hole"/>
<circle cx="540" cy="225" r="4" class="hole"/>
<circle cx="560" cy="225" r="4" class="hole"/>
<circle cx="580" cy="225" r="4" class="hole"/>
<circle cx="600" cy="225" r="4" class="hole"/>
<circle cx="620" cy="225" r="4" class="hole"/>
<circle cx="640" cy="225" r="4" class="hole"/>
<circle cx="660" cy="225" r="4" class="hole"/>
<circle cx="680" cy="225" r="4" class="hole"/>
<circle cx="700" cy="225" r="4" class="hole"/>
<circle cx="720" cy="225" r="4" class="hole"/>
<circle cx="740" cy="225" r="4" class="hole"/>
<circle cx="760" cy="225" r="4" class="hole"/>
<circle cx="780" cy="225" r="4" class="hole"/>
<circle cx="800" cy="225" r="4" class="hole"/>
<circle cx="820" cy="225" r="4" class="hole"/>
<circle cx="840" cy="225" r="4" class="hole"/>
<circle cx="860" cy="225" r="4" class="hole"/>
<circle cx="880" cy="225" r="4" class="hole"/>
<circle cx="900" cy="225" r="4" class="hole"/>
<circle cx="920" cy="225" r="4" class="hole"/>
<circle cx="940" cy="225" r="4" class="hole"/>
<circle cx="960" cy="225" r="4" class="hole"/>
<circle cx="980" cy="225" r="4" class="hole"/>
<circle cx="1000" cy="225" r="4" class="hole"/>
<circle cx="1020" cy="225" r="4" class="hole"/>
<circle cx="1040" cy="225" r="4" class="hole"/>
<circle cx="1060" cy="225" r="4" class="hole"/>
<circle cx="1080" cy="225" r="4" class="hole"/>
<circle cx="1100" cy="225" r="4" class="hole"/>
<circle cx="1120" cy="225" r="4" class="hole"/>
<circle cx="1140" cy="225" r="4" class="hole"/>
<circle cx="1160" cy="225" r="4" class="hole"/>
<circle cx="1180" cy="225" r="4" class="hole"/>
<circle cx="1200" cy="225" r="4" class="hole"/>
<circle cx="1220" cy="225" r="4" class="hole"/>
<circle cx="1240" cy="225" r="4" class="hole"/>
<circle cx="1260" cy="225" r="4" class="hole"/>
<circle cx="1280" cy="225" r="4" class="hole"/>
<circle cx="1300" cy="225" r="4" class="hole"/>
<circle cx="1320" cy="225" r="4" class="hole"/>
<circle cx="1340" cy="225" r="4" class="hole"/>
<circle cx="1360" cy="225" r="4" class="hole"/>
<circle cx="1380" cy="225" r="4" class="hole"/>
<circle cx="1400" cy="225" r="4" class="hole"/>
<circle cx="1420" cy="225" r="4" class="hole"/>
<circle cx="1440" cy="225" r="4" class="hole"/>
<circle cx="1460" cy="225" r="4" class="hole"/>
<circle cx="1480" cy="225" r="4" class="hole"/>
<circle cx="1500" cy="225" r="4" class="hole"/>
<circle cx="1520" cy="225" r="4" class="hole"/>
<circle cx="1540" cy="225" r="4" class="hole"/>
<circle cx="1560" cy="225" r="4" class="hole"/>
<circle cx="1580" cy="225" r="4" class="hole"/>
<circle cx="480" cy="760" r="4" class="hole"/>
<circle cx="500" cy="760" r="4" class="hole"/>
<circle cx="520" cy="760" r="4" class="hole"/>
<circle cx="540" cy="760" r="4" class="hole"/>
<circle cx="560" cy="760" r="4" class="hole"/>
<circle cx="580" cy="760" r="4" class="hole"/>
<circle cx="600" cy="760" r="4" class="hole"/>
<circle cx="620" cy="760" r="4" class="hole"/>
<circle cx="640" cy="760" r="4" class="hole"/>
<circle cx="660" cy="760" r="4" class="hole"/>
<circle cx="680" cy="760" r="4" class="hole"/>
<circle cx="700" cy="760" r="4" class="hole"/>
<circle cx="720" cy="760" r="4" class="hole"/>
<circle cx="740" cy="760" r="4" class="hole"/>
<circle cx="760" cy="760" r="4" class="hole"/>
<circle cx="780" cy="760" r="4" class="hole"/>
<circle cx="800" cy="760" r="4" class="hole"/>
<circle cx="820" cy="760" r="4" class="hole"/>
<circle cx="840" cy="760" r="4" class="hole"/>
<circle cx="860" cy="760" r="4" class="hole"/>
<circle cx="880" cy="760" r="4" class="hole"/>
<circle cx="900" cy="760" r="4" class="hole"/>
<circle cx="920" cy="760" r="4" class="hole"/>
<circle cx="940" cy="760" r="4" class="hole"/>
<circle cx="960" cy="760" r="4" class="hole"/>
<circle cx="980" cy="760" r="4" class="hole"/>
<circle cx="1000" cy="760" r="4" class="hole"/>
<circle cx="1020" cy="760" r="4" class="hole"/>
<circle cx="1040" cy="760" r="4" class="hole"/>
<circle cx="1060" cy="760" r="4" class="hole"/>
<circle cx="1080" cy="760" r="4" class="hole"/>
<circle cx="1100" cy="760" r="4" class="hole"/>
<circle cx="1120" cy="760" r="4" class="hole"/>
<circle cx="1140" cy="760" r="4" class="hole"/>
<circle cx="1160" cy="760" r="4" class="hole"/>
<circle cx="1180" cy="760" r="4" class="hole"/>
<circle cx="1200" cy="760" r="4" class="hole"/>
<circle cx="1220" cy="760" r="4" class="hole"/>
<circle cx="1240" cy="760" r="4" class="hole"/>
<circle cx="1260" cy="760" r="4" class="hole"/>
<circle cx="1280" cy="760" r="4" class="hole"/>
<circle cx="1300" cy="760" r="4" class="hole"/>
<circle cx="1320" cy="760" r="4" class="hole"/>
<circle cx="1340" cy="760" r="4" class="hole"/>
<circle cx="1360" cy="760" r="4" class="hole"/>
<circle cx="1380" cy="760" r="4" class="hole"/>
<circle cx="1400" cy="760" r="4" class="hole"/>
<circle cx="1420" cy="760" r="4" class="hole"/>
<circle cx="1440" cy="760" r="4" class="hole"/>
<circle cx="1460" cy="760" r="4" class="hole"/>
<circle cx="1480" cy="760" r="4" class="hole"/>
<circle cx="1500" cy="760" r="4" class="hole"/>
<circle cx="1520" cy="760" r="4" class="hole"/>
<circle cx="1540" cy="760" r="4" class="hole"/>
<circle cx="1560" cy="760" r="4" class="hole"/>
<circle cx="1580" cy="760" r="4" class="hole"/>
<circle cx="480" cy="795" r="4" class="hole"/>
<circle cx="500" cy="795" r="4" class="hole"/>
<circle cx="520" cy="795" r="4" class="hole"/>
<circle cx="540" cy="795" r="4" class="hole"/>
<circle cx="560" cy="795" r="4" class="hole"/>
<circle cx="580" cy="795" r="4" class="hole"/>
<circle cx="600" cy="795" r="4" class="hole"/>
<circle cx="620" cy="795" r="4" class="hole"/>
<circle cx="640" cy="795" r="4" class="hole"/>
<circle cx="660" cy="795" r="4" class="hole"/>
<circle cx="680" cy="795" r="4" class="hole"/>
<circle cx="700" cy="795" r="4" class="hole"/>
<circle cx="720" cy="795" r="4" class="hole"/>
<circle cx="740" cy="795" r="4" class="hole"/>
<circle cx="760" cy="795" r="4" class="hole"/>
<circle cx="780" cy="795" r="4" class="hole"/>
<circle cx="800" cy="795" r="4" class="hole"/>
<circle cx="820" cy="795" r="4" class="hole"/>
<circle cx="840" cy="795" r="4" class="hole"/>
<circle cx="860" cy="795" r="4" class="hole"/>
<circle cx="880" cy="795" r="4" class="hole"/>
<circle cx="900" cy="795" r="4" class="hole"/>
<circle cx="920" cy="795" r="4" class="hole"/>
<circle cx="940" cy="795" r="4" class="hole"/>
<circle cx="960" cy="795" r="4" class="hole"/>
<circle cx="980" cy="795" r="4" class="hole"/>
<circle cx="1000" cy="795" r="4" class="hole"/>
<circle cx="1020" cy="795" r="4" class="hole"/>
<circle cx="1040" cy="795" r="4" class="hole"/>
<circle cx="1060" cy="795" r="4" class="hole"/>
<circle cx="1080" cy="795" r="4" class="hole"/>
<circle cx="1100" cy="795" r="4" class="hole"/>
<circle cx="1120" cy="795" r="4" class="hole"/>
<circle cx="1140" cy="795" r="4" class="hole"/>
<circle cx="1160" cy="795" r="4" class="hole"/>
<circle cx="1180" cy="795" r="4" class="hole"/>
<circle cx="1200" cy="795" r="4" class="hole"/>
<circle cx="1220" cy="795" r="4" class="hole"/>
<circle cx="1240" cy="795" r="4" class="hole"/>
<circle cx="1260" cy="795" r="4" class="hole"/>
<circle cx="1280" cy="795" r="4" class="hole"/>
<circle cx="1300" cy="795" r="4" class="hole"/>
<circle cx="1320" cy="795" r="4" class="hole"/>
<circle cx="1340" cy="795" r="4" class="hole"/>
<circle cx="1360" cy="795" r="4" class="hole"/>
<circle cx="1380" cy="795" r="4" class="hole"/>
<circle cx="1400" cy="795" r="4" class="hole"/>
<circle cx="1420" cy="795" r="4" class="hole"/>
<circle cx="1440" cy="795" r="4" class="hole"/>
<circle cx="1460" cy="795" r="4" class="hole"/>
<circle cx="1480" cy="795" r="4" class="hole"/>
<circle cx="1500" cy="795" r="4" class="hole"/>
<circle cx="1520" cy="795" r="4" class="hole"/>
<circle cx="1540" cy="795" r="4" class="hole"/>
<circle cx="1560" cy="795" r="4" class="hole"/>
<circle cx="1580" cy="795" r="4" class="hole"/>
</g>

<rect x="760" y="520" width="470" height="245" rx="18" fill="#2f3338" stroke="#111" stroke-width="3"/>
<rect x="970" y="570" width="150" height="105" rx="8" fill="#c7c7c7" stroke="#777"/>
<text x="997" y="630" class="subtitle" fill="#333">ESP32</text>
<text x="795" y="550" class="small" fill="#fff">ESP32 DevKit</text>
<text x="780" y="735" class="tiny" fill="#fff">VIN  GND  3V3  GPIO34  GPIO18  GPIO19  GPIO21  GPIO22</text>

<!-- ESP32 pin dots / rough positions -->
<circle cx="800" cy="760" r="7" fill="#d40000"/><text x="780" y="790" class="tiny">5V/VIN</text>
<circle cx="850" cy="760" r="7" fill="#111"/><text x="835" y="790" class="tiny">GND</text>
<circle cx="900" cy="760" r="7" fill="#7b2dbd"/><text x="885" y="790" class="tiny">3V3</text>
<circle cx="950" cy="760" r="7" fill="#008c3a"/><text x="930" y="790" class="tiny">GPIO34</text>
<circle cx="1005" cy="760" r="7" fill="#f5b000"/><text x="990" y="790" class="tiny">GPIO18</text>
<circle cx="1060" cy="760" r="7" fill="#df2020"/><text x="1040" y="790" class="tiny">GPIO19</text>
<circle cx="1115" cy="760" r="7" fill="#00a64a"/><text x="1095" y="790" class="tiny">GPIO21</text>
<circle cx="1170" cy="760" r="7" fill="#00a0a0"/><text x="1150" y="790" class="tiny">GPIO22</text>

<!-- Components -->
<!-- Phototransistor -->
<rect x="520" y="260" width="85" height="70" rx="8" fill="#111" stroke="#333" stroke-width="2"/>
<text x="508" y="245" class="label">BPW40/BPW77</text>
<line x1="545" y1="330" x2="545" y2="395" stroke="#008c3a" stroke-width="5"/>
<line x1="580" y1="330" x2="580" y2="430" stroke="#111" stroke-width="5"/>
<text x="532" y="350" class="tiny">C</text><text x="568" y="350" class="tiny">E</text>

<!-- 1M resistor vertical -->
<rect x="620" y="285" width="22" height="90" rx="8" class="res"/>
<text x="598" y="250" class="label">1MΩ</text>
<text x="586" y="270" class="tiny">sensor</text>

<!-- Red LED and resistor -->
<circle cx="1110" cy="300" r="32" fill="#e31b23" stroke="#8b0000" stroke-width="4"/>
<text x="1070" y="248" class="label">Röd LED</text>
<rect x="1118" y="390" width="22" height="90" rx="8" class="res"/>
<text x="1095" y="375" class="label">330Ω</text>

<!-- Green LED and resistor -->
<circle cx="980" cy="300" r="32" fill="#00a64a" stroke="#006b2e" stroke-width="4"/>
<text x="930" y="248" class="label">Grön LED</text>
<rect x="985" y="390" width="22" height="90" rx="8" class="res"/>
<text x="962" y="375" class="label">330Ω</text>

<!-- 2N7000 MOSFET -->
<rect x="1320" y="380" width="70" height="90" rx="8" fill="#111" stroke="#333"/>
<text x="1312" y="360" class="label">2N7000</text>
<text x="1326" y="490" class="tiny">G D S*</text>
<rect x="1265" y="385" width="22" height="80" rx="8" class="res"/>
<text x="1240" y="370" class="label">220Ω</text>
<rect x="1418" y="390" width="22" height="90" rx="8" class="res"/>
<text x="1390" y="370" class="label">100kΩ</text>

<!-- Buzzer -->
<circle cx="1430" cy="275" r="58" fill="#333" stroke="#111" stroke-width="4"/>
<circle cx="1430" cy="275" r="18" fill="#777"/>
<text x="1385" y="195" class="label">Aktiv summer 5V</text>
<text x="1462" y="265" class="label" fill="#fff">+</text>
<text x="1390" y="265" class="label" fill="#fff">−</text>

<!-- Button -->
<rect x="1465" y="560" width="105" height="80" rx="12" fill="#ddd" stroke="#555" stroke-width="3"/>
<circle cx="1517" cy="600" r="22" fill="#999" stroke="#555"/>
<text x="1470" y="545" class="label">Tyst-knapp</text>

<!-- Wiring -->
<!-- 5V from ESP32 VIN to red rail and buzzer + -->
<path d="M800 760 C740 720 670 735 650 760 L470 760" class="wire5"/>
<path d="M470 760 L470 190 L510 190" class="wire5"/>
<path d="M800 760 C980 875 1340 820 1465 332" class="wire5"/>

<!-- GND bus -->
<path d="M850 760 L850 795 L470 795" class="wireg"/>
<path d="M470 795 L470 225 L510 225" class="wireg"/>

<!-- 3V3 to resistor top -->
<path d="M900 760 C900 700 700 680 631 375 L631 285" class="wire33"/>
<path d="M631 285 L631 190" class="wire33"/>

<!-- Phototransistor ADC node to GPIO34 -->
<path d="M545 395 L545 430 L650 430 C760 430 830 690 950 760" class="wireSig"/>
<path d="M620 375 L620 430 L545 430" class="wire33"/>
<path d="M580 430 L580 520 L470 520 L470 795" class="wireg"/>

<!-- Green LED -->
<path d="M1115 760 C1120 660 1060 540 996 480" class="wireLedG"/>
<path d="M996 390 L996 332" class="wireLedG"/>
<path d="M980 332 L980 520 L850 520 L850 795" class="wireg"/>

<!-- Red LED -->
<path d="M1060 760 C1070 650 1125 555 1129 480" class="wireLed"/>
<path d="M1129 390 L1129 332" class="wireLed"/>
<path d="M1110 332 L1110 520 L850 520" class="wireg"/>

<!-- Buzzer/MOSFET -->
<path d="M1005 760 C1100 690 1190 560 1265 425" class="wireBuz"/>
<path d="M1287 425 L1320 425" class="wireBuz"/>
<path d="M1390 425 L1430 425 L1430 333" class="wireg"/>
<path d="M1430 333 L1430 333" class="wireg"/>
<path d="M1380 470 L1380 795 L850 795" class="wireg"/>
<path d="M1429 480 L1429 795" class="wireg"/>

<!-- Button -->
<path d="M1170 760 C1260 735 1395 680 1488 640" class="wireBtn"/>
<path d="M1545 640 L1545 795 L850 795" class="wireg"/>

<!-- Labels numbered -->
<circle cx="510" cy="140" r="18" fill="#fff" stroke="#111"/><text x="504" y="147" class="label">1</text><text x="535" y="147" class="txt">Koppla GND-skenan</text>
<circle cx="510" cy="875" r="18" fill="#fff" stroke="#111"/><text x="504" y="882" class="label">2</text><text x="535" y="882" class="txt">Koppla 5V-skenan</text>
<circle cx="520" cy="470" r="18" fill="#fff" stroke="#111"/><text x="514" y="477" class="label">3</text><text x="80" y="475" class="txt">Sensor: 3V3 → 1MΩ → GPIO34 → fototransistor → GND</text>
<circle cx="955" cy="245" r="18" fill="#fff" stroke="#111"/><text x="949" y="252" class="label">4</text><text x="835" y="215" class="txt">LED: GPIO21/19 → 330Ω → LED → GND</text>
<circle cx="1285" cy="520" r="18" fill="#fff" stroke="#111"/><text x="1279" y="527" class="label">5</text><text x="1190" y="545" class="txt">Summer: GPIO18 → 2N7000 → summer</text>
<circle cx="1460" cy="680" r="18" fill="#fff" stroke="#111"/><text x="1454" y="687" class="label">6</text><text x="1340" y="710" class="txt">Knapp: GPIO22 → knapp → GND</text>

<!-- Legend -->
<rect x="40" y="850" width="360" height="290" rx="10" class="box"/>
<text x="60" y="885" class="subtitle">Färgkod</text>
<line x1="70" y1="925" x2="140" y2="925" class="wire5"/><text x="160" y="932" class="txt">5V</text>
<line x1="70" y1="965" x2="140" y2="965" class="wireg"/><text x="160" y="972" class="txt">GND</text>
<line x1="70" y1="1005" x2="140" y2="1005" class="wire33"/><text x="160" y="1012" class="txt">3.3V</text>
<line x1="70" y1="1045" x2="140" y2="1045" class="wireSig"/><text x="160" y="1052" class="txt">Sensorsignal GPIO34</text>
<line x1="70" y1="1085" x2="140" y2="1085" class="wireBuz"/><text x="160" y="1092" class="txt">Summerstyrning GPIO18</text>

<rect x="1210" y="850" width="420" height="290" rx="10" class="box"/>
<text x="1230" y="885" class="subtitle">ESP32 anslutningar</text>
<text x="1230" y="930" class="txt">GPIO34  Sensor ADC</text>
<text x="1230" y="965" class="txt">GPIO18  2N7000 gate</text>
<text x="1230" y="1000" class="txt">GPIO19  Röd LED</text>
<text x="1230" y="1035" class="txt">GPIO21  Grön LED</text>
<text x="1230" y="1070" class="txt">GPIO22  Tyst-knapp</text>
<text x="1230" y="1105" class="small">* Kontrollera 2N7000 G/D/S mot datablad.</text>

</svg>